<svg width="16" height="16" viewBox="0 0 16 16" fill="none" xmlns="http://www.w3.org/2000/svg">
<path fill-rule="evenodd" clip-rule="evenodd" d="M8 16C12.4183 16 16 12.4183 16 8C16 3.58172 12.4183 0 8 0C3.58172 0 0 3.58172 0 8C0 12.4183 3.58172 16 8 16ZM11.4152 4.62525C10.6563 3.84809 9.55288 3.45951 8.1049 3.45951C7.66876 3.45951 7.25879 3.50417 6.87498 3.5935C6.48246 3.68283 6.12482 3.82576 5.80208 4.02228C5.47934 4.2188 5.20021 4.47339 4.96469 4.78604L4.83385 3.6203H3.89179L3.89179 8.45745H8.31424V7.37211L5.14787 7.37211V7.21132C5.14787 6.61281 5.2569 6.11704 5.47497 5.72399C5.68432 5.33095 6.00707 5.03616 6.4432 4.83964C6.87934 4.65205 7.43324 4.55825 8.1049 4.55825C8.76783 4.55825 9.33481 4.67438 9.80584 4.90664C10.2769 5.14782 10.6389 5.52747 10.8918 6.04558C11.1361 6.56368 11.2582 7.23812 11.2582 8.06887V8.35026C11.2582 8.96663 11.184 9.49813 11.0358 9.94478C10.8875 10.3914 10.6738 10.7577 10.3946 11.0435C10.1155 11.3294 9.77095 11.5393 9.36098 11.6733C8.95101 11.8073 8.48434 11.8743 7.96097 11.8743C7.57717 11.8743 7.21517 11.8341 6.87498 11.7537C6.53479 11.6822 6.23822 11.5572 5.98526 11.3785C5.72357 11.1998 5.52295 10.9676 5.38338 10.6817C5.24382 10.4048 5.17404 10.0698 5.17404 9.67679L3.90487 9.67679C3.90487 10.2396 4.00518 10.7264 4.20581 11.1373C4.39771 11.5482 4.67684 11.8877 5.0432 12.1557C5.40083 12.4326 5.82825 12.638 6.32545 12.772C6.82265 12.906 7.37654 12.973 7.98714 12.973C8.96409 12.973 9.79276 12.7944 10.4731 12.437C11.1535 12.0887 11.6682 11.5616 12.0171 10.8559C12.366 10.1502 12.5404 9.27035 12.5404 8.21627C12.5404 6.59942 12.1654 5.40241 11.4152 4.62525Z" fill="#F1F5F9"/>
</svg>
