<svg width="61" height="69" viewBox="0 0 61 69" fill="none" xmlns="http://www.w3.org/2000/svg">
    <path d="M0.5 0V55.9858L30.4989 69L60.5 55.9858V0H0.5Z" fill="#CFD4D2"></path>
    <path d="M27.0246 49.5681H26.3537C26.3161 49.5681 26.2873 49.5438 26.2873 49.5129V46.3262C26.2873 46.2952 26.3183 46.271 26.3537 46.271H27.0246C27.0623 46.271 27.0911 46.2952 27.0911 46.3262V49.5129C27.0911 49.5438 27.0601 49.5681 27.0246 49.5681ZM23.3379 45.2838V50.5575C23.3379 50.8601 23.639 51.1074 24.0088 51.1074H29.3718C29.7416 51.1074 30.0427 50.8623 30.0427 50.5575V45.2838C30.0427 44.9812 29.7416 44.7339 29.3718 44.7339H24.0088C23.639 44.7339 23.3379 44.979 23.3379 45.2838Z" fill="#2B2926"></path>
    <path d="M38.0029 46.2732H39.8806V51.1074H42.83V46.2732H44.7055V44.7339H38.0029V46.2732Z" fill="#2B2926"></path>
    <path d="M19.5627 47.9206H18.8254V46.2732H19.5627C19.6004 46.2732 19.6292 46.2975 19.6292 46.3284V47.8654C19.6292 47.8964 19.5982 47.9206 19.5627 47.9206ZM15.876 44.7339V51.1074H18.8254V49.4599H21.9076C22.2774 49.4599 22.5786 49.2148 22.5786 48.91V45.2838C22.5786 44.9812 22.2774 44.7339 21.9076 44.7339H15.876Z" fill="#2B2926"></path>
    <path d="M33.7492 46.2732H34.4866C34.5242 46.2732 34.553 46.2975 34.553 46.3284V47.8676C34.553 47.8986 34.522 47.9229 34.4866 47.9229H33.7492V46.2754V46.2732ZM30.7998 44.7339V51.1074H33.7492V49.4599H34.2098L34.8829 51.1074H37.4271L36.754 49.4599C37.1658 49.4599 37.5024 49.1861 37.5024 48.8482V45.286C37.5024 44.9834 37.2013 44.7361 36.8315 44.7361H30.7998V44.7339Z" fill="#2B2926"></path>
    <path d="M8.68164 45.284V48.2499C8.68164 48.5525 8.98278 48.7998 9.35256 48.7998H12.1005C12.1381 48.7998 12.1669 48.8241 12.1669 48.855V49.5131C12.1669 49.5441 12.1359 49.5684 12.1005 49.5684H8.68164V51.1076H14.4454C14.8152 51.1076 15.1163 50.8625 15.1163 50.5577V47.5918C15.1163 47.2893 14.8174 47.0419 14.4454 47.0419H11.6975C11.6598 47.0419 11.631 47.0176 11.631 46.9867V46.3286C11.631 46.2977 11.662 46.2734 11.6975 46.2734H15.1163V44.7363H9.35256C8.98278 44.7363 8.68164 44.9815 8.68164 45.2862" fill="#2B2926"></path>
    <path d="M45.2061 45.2838V48.2497C45.2061 48.5522 45.5072 48.7996 45.877 48.7996H48.6249C48.6625 48.7996 48.6913 48.8239 48.6913 48.8548V49.5129C48.6913 49.5438 48.6603 49.5681 48.6249 49.5681H45.2061V51.1074H50.9698C51.3396 51.1074 51.6407 50.8622 51.6407 50.5575V47.5916C51.6407 47.289 51.3418 47.0417 50.9698 47.0417H48.2219C48.1842 47.0417 48.1555 47.0174 48.1555 46.9865V46.3284C48.1555 46.2974 48.1865 46.2731 48.2219 46.2731H51.6407V44.7361H45.877C45.5072 44.7361 45.2061 44.9812 45.2061 45.286" fill="#2B2926"></path>
    <path d="M23.7719 40.0233H22.853C22.8021 40.0233 22.7622 39.9681 22.7622 39.8974V35.3149C22.7622 35.2465 22.8043 35.189 22.853 35.189L23.7719 34.9505C23.8229 34.9505 23.8627 35.0057 23.8627 35.0764V39.8952C23.8627 39.9636 23.8206 40.0211 23.7719 40.0211M18.7212 34.4978V41.7216C18.7212 42.415 19.133 42.9781 19.6401 42.9781H26.9871C27.4941 42.9781 27.906 42.415 27.906 41.7216V32.349C27.906 31.6556 27.4941 31.0924 26.9871 31.0924L19.6401 32.9541C19.133 32.9541 18.7212 33.8021 18.7212 34.4978Z" fill="#EA2D40"></path>
    <path d="M37.0797 35.7898L36.4707 28.6102L34.0993 29.2727L33.2756 35.7876L32.5714 29.6548L29.0884 30.5116L30.8399 42.9826H34.4004H34.4469L34.4248 42.8258L35.1776 38.4178L35.9327 42.8258L35.9105 42.9826H35.9548H39.5154L41.7318 27.0952L37.992 28.1553L37.0797 35.7898Z" fill="#EA2D40"></path>
    <path d="M47.9851 25.3328V33.7315L45.9879 25.9291L42.476 26.7882L42.29 42.9826H45.9635V36.6113L47.9696 42.9826H49.2694H51.6586V24.423L47.9851 25.3328Z" fill="#EA2D40"></path>
    <path d="M4.9551 52.9911L30.4989 64.073L56.0427 52.9911V4.6421H4.9551V52.9911ZM30.4989 67.5005L1.8042 55.0516V1.49951H59.1958V55.0516L30.4989 67.5005Z" fill="white"></path>
    <path d="M32.2437 15.2138V11.4993C32.2437 11.4308 32.2857 11.3734 32.3367 11.3734H33.2556C33.3065 11.3734 33.3464 11.4286 33.3464 11.4993V15.2138H32.2437ZM28.2026 9.10975V23.9239L32.2437 22.8881V18.7319H33.3464V22.6474L37.3874 21.647V9.10755C37.3874 8.4141 36.9756 7.85095 36.4685 7.85095H29.1216C28.6145 7.85095 28.2026 8.4141 28.2026 9.10755" fill="#E12E44"></path>
    <path d="M8.68164 11.3757H11.2524V28.2326L15.2934 27.2609V11.3757H17.8642V7.85547H8.68164V11.3757Z" fill="#E12E44"></path>
    <path d="M8.68164 34.1864L11.2524 33.4576V42.9825H15.2934V32.5477L51.6406 22.9278V19.4076L8.68164 30.5226V34.1864Z" fill="#E12E44"></path>
    <path d="M18.7212 9.11196V24.9795C18.7212 25.6729 19.133 26.2361 19.6401 26.2361L27.1708 24.3633V20.8431L22.8552 21.8921C22.8043 21.8921 22.7644 21.8369 22.7644 21.7662V18.1842H26.2541V14.6639H22.7644V11.4971C22.7644 11.4286 22.8065 11.3712 22.8552 11.3712H27.1708V7.85095H19.6401C19.133 7.85095 18.7212 8.4141 18.7212 9.10755" fill="#E12E44"></path>
    <path d="M47.4802 7.92383L45.0312 15.4546L42.58 7.92383H38.4194V21.287L42.4583 20.2402V16.2032L43.7381 19.8537L46.5414 19.1757L47.602 16.2032V18.8754L51.6408 17.9015V7.92383H47.4802Z" fill="#E12E44"></path>
    <path d="M23.7719 40.0233H22.853C22.8021 40.0233 22.7622 39.9681 22.7622 39.8974V35.3149C22.7622 35.2465 22.8043 35.189 22.853 35.189L23.7719 34.9505C23.8229 34.9505 23.8627 35.0057 23.8627 35.0764V39.8952C23.8627 39.9636 23.8206 40.0211 23.7719 40.0211M18.7212 34.4978V41.7216C18.7212 42.415 19.133 42.9781 19.6401 42.9781H26.9871C27.4941 42.9781 27.906 42.415 27.906 41.7216V32.349C27.906 31.6556 27.4941 31.0924 26.9871 31.0924L19.6401 32.9541C19.133 32.9541 18.7212 33.8021 18.7212 34.4978Z" fill="#E12E44"></path>
    <path d="M37.0797 35.7898L36.4707 28.6102L34.0993 29.2727L33.2756 35.7876L32.5714 29.6548L29.0884 30.5116L30.8399 42.9826H34.4004H34.4469L34.4248 42.8258L35.1776 38.4178L35.9327 42.8258L35.9105 42.9826H35.9548H39.5154L41.7318 27.0952L37.992 28.1553L37.0797 35.7898Z" fill="#E12E44"></path>
    <path d="M47.9846 25.3328V33.7315L45.9874 25.9291L42.4756 26.7882L42.2896 42.9826H45.963V36.6113L47.9691 42.9826H49.2689H51.6581V24.423L47.9846 25.3328Z" fill="#E12E44"></path>
</svg>